# xmcd CD database file
#
# Track frame offsets:
#	150
#	13508
#	25658
#	41441
#	58867
#	68612
#	85424
#	105710
#	121630
#	137852
#	155498
#	173819
#
# Disc length: 2598 seconds
#
# Revision: 2
# Processed by: cddbd v1.5.2PL0 Copyright (c) Steve Scherf et al.
# Submitted via: CdAid (MTCDDB.DLL V2003.12.21)
#
DISCID=930a240c
DTITLE=Babyshambles - Shotters Nation
DYEAR=2007
DGENRE=Power Ballad
TTITLE0=Carry On Up The Morning
TTITLE1=Delivery
TTITLE2=You Talk
TTITLE3=UnBiloTitled
TTITLE4=Side Of The Road
TTITLE5=Crumb Begging Baghead
TTITLE6=Unstookie Titled
TTITLE7=French Dog Blues
TTITLE8=There She Goes
TTITLE9=Baddie's Boogie
TTITLE10=Deft Left Hand
TTITLE11=Lost Art Of Murder
EXTD=Made In Holland ID3G:  17 YEAR: 2007
EXTT0=
EXTT1=
EXTT2=
EXTT3=
EXTT4=
EXTT5=
EXTT6=
EXTT7=
EXTT8=
EXTT9=
EXTT10=
EXTT11=
PLAYORDER=
